/* XPM */
static char *_783d6a88ac843d29bfbd84651c7cef50OQ6dNm0RxZS5qFX[] = {
/* columns rows colors chars-per-pixel */
"32 32 172 2 ",
"   c None",
".  c #000002",
"X  c #080705",
"o  c #00000A",
"O  c #07080F",
"+  c #0C0C0D",
"@  c #0F100F",
"#  c #16150D",
"$  c #020513",
"%  c #090C15",
"&  c #060A18",
"*  c #090C17",
"=  c #0F1014",
"-  c #0F131D",
";  c #131315",
":  c #1A1915",
">  c #14151B",
",  c #252110",
"<  c #2A2514",
"1  c #29271E",
"2  c #2F2B18",
"3  c #302B1E",
"4  c #191C25",
"5  c #1F2125",
"6  c #282725",
"7  c #2E2B24",
"8  c #212228",
"9  c #2C2C29",
"0  c #322F26",
"q  c #302F2C",
"w  c #2F302F",
"e  c #343127",
"r  c #3B3620",
"t  c #33312B",
"y  c #4A3C19",
"u  c #443D27",
"i  c #5A491C",
"p  c #464228",
"a  c #4C4628",
"s  c #564925",
"d  c #5F542C",
"f  c #4E4B37",
"g  c #544C34",
"h  c #534F3A",
"j  c #5B5334",
"k  c #685622",
"l  c #65562B",
"z  c #6B5B2E",
"x  c #6B5A26",
"c  c #605635",
"v  c #645935",
"b  c #655C38",
"n  c #7E672A",
"m  c #6D623C",
"M  c #726336",
"N  c #76693E",
"B  c #766D47",
"V  c #776F49",
"C  c #7B6F44",
"Z  c #7E7240",
"A  c #886C22",
"S  c #9F7E2B",
"D  c #877030",
"F  c #8A773A",
"G  c #837641",
"H  c #93803D",
"J  c #A2883B",
"K  c #CA951B",
"L  c #CE9B22",
"P  c #D19E22",
"I  c #D29F28",
"U  c #D3A126",
"Y  c #D9A222",
"T  c #D4A42B",
"R  c #D9A629",
"E  c #DDAA2C",
"W  c #DAAC33",
"Q  c #DCAF39",
"!  c #DEB33C",
"~  c #E0AD2F",
"^  c #E6B12D",
"/  c #E3B233",
"(  c #E9B531",
")  c #EFBB37",
"_  c #E2B63E",
"`  c #EFBE3D",
"'  c #F0BA32",
"]  c #9D8F4D",
"[  c #9F914F",
"{  c #8E8352",
"}  c #A08B40",
"|  c #A7934A",
" . c #B49D4C",
".. c #A19356",
"X. c #AF9F58",
"o. c #AB9C54",
"O. c #BEA855",
"+. c #B9A95F",
"@. c #AA9C61",
"#. c #AEA36A",
"$. c #B6A867",
"%. c #B5AA6C",
"&. c #BDB173",
"*. c #DDB440",
"=. c #D6BC5B",
"-. c #D8BD5A",
";. c #E3BA44",
":. c #EABF46",
">. c #E6BF4B",
",. c #D1B961",
"<. c #C1B574",
"1. c #C9BD77",
"2. c #C6BB7B",
"3. c #E7C14B",
"4. c #EBC44C",
"5. c #EDC246",
"6. c #F4C646",
"7. c #FAC841",
"8. c #F2C648",
"9. c #F4CB4E",
"0. c #F9CB49",
"q. c #FFD24D",
"w. c #E7C250",
"e. c #EAC550",
"r. c #EECA55",
"t. c #F2CD56",
"y. c #F1CF5C",
"u. c #F5D057",
"i. c #FCD251",
"p. c #F3D15D",
"a. c #FBD55B",
"s. c #FFDB5C",
"d. c #FFE25B",
"f. c #DECA72",
"g. c #E1C763",
"h. c #EACE62",
"j. c #E4CC6B",
"k. c #EED166",
"l. c #F5D562",
"z. c #F7D966",
"x. c #FADA65",
"c. c #FADC69",
"v. c #F4DA6F",
"b. c #E4CF73",
"n. c #FADF71",
"m. c #F5DE78",
"M. c #FFE167",
"N. c #FFE966",
"B. c #FFE36A",
"V. c #FFEC6B",
"C. c #FDE272",
"Z. c #FFEB75",
"A. c #FBE47B",
"S. c #FFEB7C",
"D. c #FFF376",
"F. c #FFF67D",
"G. c #FFFF7E",
"H. c #D7CB81",
"J. c #FCE783",
"K. c #FDE986",
"L. c #FEEC8C",
"P. c #F5E283",
"I. c #FFF082",
"U. c #FFF887",
"Y. c #FFF58C",
"T. c #FDEF94",
"R. c #FFF195",
"E. c #FFFC92",
"W. c #FFF799",
"Q. c #FFFB9B",
"!. c #FFFFA1",
"~. c #FFFFAD",
/* pixels */
"                        T.R.L.J.A.n.x.l.                        ",
"                  n.A.Y.Q.W.T.J.A.c.B.c.x.r.e.                  ",
"              p.B.F.K.L.R.R.L.J.A.n.x.l.p.u.s.t.;.              ",
"            r.V.B.n.A.L.R.R.L.J.A.n.x.l.y.r.4.4.q._             ",
"          >.s.p.x.n.A.K.T.R.L.J.A.n.x.l.y.r.e.3.;.6.Q           ",
"        ;.i.r.p.z.n.A.K.R.R.L.J.A.n.x.l.y.r.e.>.;.! ` W         ",
"      ! 0.3.r.p.z.n.A.K.R.R.L.J.A.n.x.l.y.y.w.>.;.*.! ) T       ",
"    W 7.;.>.r.p.z.n.J.K.T.T.E.Y.A.D.x.l.y.r.e.>.;.;.Q W ' I     ",
"    / _ ;.3.r.p.z.n.A.K.R.W.<.$.f...h.x.p.r.e.>.;.! Q W E R     ",
"  T ' ! ;.3.r.p.z.n.A.K.R.!.f 7 ..o -.B.y.r.e.>.;.*.Q W T ^ L   ",
"  U / ! ;.4.r.p.z.C.A.L.R.!.p < [ . =.B.y.y.e.>.;.! ! W T R L   ",
"  E W Q 8.i.t.p.z.C.U.E.W.~.a < o.. h.V.s.s.e.>.;.;.` / T U Y   ",
"L E W _ k x t.a.c.S.N m E.%.# X r . a F } l w.4.:.! i A W I Y K ",
"P R W _ # . z V.D.G . @ 1.. + : + : X s d . e.9.5._ o y ( T P K ",
"L T W _ 2 * o | O.o + e %.o $.Y.m.v.l.B.v ; t.9.8.;.> s ( U L K ",
"L T / _ 9 c c & * h V w 2.* <.E.S.C.B.V.N - 0 e e 0 > z ^ T K K ",
"L U W _ 0 m s.t 5 S.{ w 2.4 1.E.K.Z.V.N.Z 4 h g g g 4 M ^ I L K ",
"P T / _ 6 j d.=.,.G.B 9 &.O #.P.b.j.g.l.m 5 u.i.0.:.4 l ( I P K ",
"L R W _ * u a.s.B.F.j % H.% O ; % > o g b O e.9.8.*.$ s ( I P K ",
"P E W ! D J u.p.z.Z.+.{ W.H.1 : j . M  . .F w.3.;.*.n S ~ I P K ",
"  E W ! 8.t.r.p.z.n.K.E.W.~.g 2 +.. k.V.s.s.e.>.;._ ` / T I Y   ",
"  T / ! ;.4.r.p.z.C.A.L.R.!.p , ] . -.M.p.r.e.>.;.*.Q W T R P   ",
"  T ) ! *.3.r.p.z.C.A.K.R.Q.h 0 ..$ =.c.y.r.e.>.;.*.Q W T ^ L   ",
"    / _ ;.3.r.y.z.C.A.K.T.W.2.&.f.@.k.x.y.r.e.3.;.*.Q W E E     ",
"    W 7.;.>.r.p.z.A.A.K.T.R.E.Y.S.S.x.l.y.r.e.>.;.;.Q W ( U     ",
"      ! 0.3.r.p.z.c.A.K.T.R.L.J.A.n.c.l.y.r.e.>.;.! Q ) T       ",
"        *.q.r.p.z.C.A.K.R.R.L.J.A.c.c.l.y.r.e.>.;.;.` W         ",
"          >.s.p.z.A.A.K.R.R.L.J.A.n.x.l.p.r.e.3.;.6.Q           ",
"            r.V.B.C.A.K.R.R.L.J.A.n.z.l.y.r.e.5.0.;.            ",
"              p.B.F.K.K.T.R.L.J.A.c.x.l.y.a.s.9.;.              ",
"                  C.A.R.Q.W.L.J.A.C.B.c.x.t.e.                  ",
"                        T.R.L.J.A.n.x.l.                        "
};
