/* XPM */
static char *_6bda18d5d2b4186a7365f0558713380CSymPelglD8jesmc[] = {
/* columns rows colors chars-per-pixel */
"64 64 213 2 ",
"   c None",
".  c #000002",
"X  c #01030B",
"o  c #0B0B0D",
"O  c #090907",
"+  c #13110D",
"@  c #030613",
"#  c #060912",
"$  c #0B0D13",
"%  c #0A0E19",
"&  c #05091A",
"*  c #0F1115",
"=  c #0E111A",
"-  c #131314",
";  c #1B1A16",
":  c #12141B",
">  c #17181D",
",  c #1B1B1B",
"<  c #1A1712",
"1  c #221E12",
"2  c #23221C",
"3  c #2A271C",
"4  c #3D371E",
"5  c #342D1A",
"6  c #0D1123",
"7  c #121623",
"8  c #151823",
"9  c #1B1D22",
"0  c #1B1E28",
"q  c #1E2129",
"w  c #232322",
"e  c #2C2A25",
"r  c #23252B",
"t  c #2A2A2C",
"y  c #27282A",
"u  c #312E25",
"i  c #302F2B",
"p  c #3C3522",
"a  c #35332B",
"s  c #3D392B",
"d  c #3E3D39",
"f  c #393834",
"g  c #272A30",
"h  c #413A1F",
"j  c #433C24",
"k  c #403D34",
"l  c #4A432B",
"z  c #494329",
"x  c #524B2A",
"c  c #514628",
"v  c #454233",
"b  c #45433D",
"n  c #4E4832",
"m  c #534D37",
"M  c #5B5438",
"N  c #665937",
"B  c #645A38",
"V  c #6A5E39",
"C  c #6D633A",
"Z  c #595851",
"A  c #565243",
"S  c #635D41",
"D  c #776F4C",
"F  c #7E7754",
"G  c #76704F",
"H  c #85743A",
"J  c #867E58",
"K  c #8E7D44",
"L  c #B38E2E",
"P  c #B69132",
"I  c #BA9534",
"U  c #BE9B3B",
"Y  c #BD9738",
"T  c #B28D2D",
"R  c #CA951B",
"E  c #CD991E",
"W  c #D49D1D",
"Q  c #CE9B22",
"!  c #D09E24",
"~  c #C29D3B",
"^  c #D3A126",
"/  c #DAA424",
"(  c #D4A32B",
")  c #D8A62B",
"_  c #DCAA2C",
"`  c #D6A82F",
"'  c #D7A830",
"]  c #DAAC35",
"[  c #DCAF38",
"{  c #D0A330",
"}  c #DEB23B",
"|  c #DFB137",
" . c #E3AB24",
".. c #E1AE2D",
"X. c #E9B22C",
"o. c #E2B02F",
"O. c #E0AE30",
"+. c #E3B233",
"@. c #E1B43A",
"#. c #E9BB3E",
"$. c #ECB630",
"%. c #F0BB35",
"&. c #F4BF38",
"*. c #F4C13B",
"=. c #F8C53E",
"-. c #988648",
";. c #8B835B",
":. c #948B5A",
">. c #A28C4C",
",. c #A48E45",
"<. c #AC9348",
"1. c #B39A4D",
"2. c #A99556",
"3. c #B89F52",
"4. c #BFA851",
"5. c #8A8461",
"6. c #9B9466",
"7. c #938A60",
"8. c #A59B69",
"9. c #A59E70",
"0. c #B5A966",
"q. c #BAAE6B",
"w. c #B7AB68",
"e. c #BDB16F",
"r. c #C5A94C",
"t. c #C8AA49",
"y. c #DEB644",
"u. c #C1AA54",
"i. c #C3AC5A",
"p. c #CBB155",
"a. c #CBB35A",
"s. c #D3B95D",
"d. c #D7BA5A",
"f. c #E0B640",
"g. c #E3BB44",
"h. c #EABD41",
"j. c #E6BE49",
"k. c #C5B76C",
"l. c #D3BC62",
"z. c #D3BF6D",
"x. c #CBBF78",
"c. c #DEC15C",
"v. c #ECC044",
"b. c #E7C14C",
"n. c #E9C34E",
"m. c #F3C544",
"M. c #F9C843",
"N. c #F4CA4C",
"B. c #FCCD4A",
"V. c #F2C749",
"C. c #FFD34E",
"Z. c #EBC652",
"A. c #EDCA56",
"S. c #E3C45B",
"D. c #EFCC58",
"F. c #F2CB52",
"G. c #F1CE5B",
"H. c #FCD454",
"J. c #F2D15E",
"K. c #FCD55B",
"L. c #FFDC5B",
"P. c #FFD853",
"I. c #FFE356",
"U. c #D6C36E",
"Y. c #D3C57B",
"T. c #D8C673",
"R. c #F5D562",
"E. c #F7D966",
"W. c #FCDB64",
"Q. c #FADC6B",
"!. c #F7D866",
"~. c #E2CE77",
"^. c #FADF72",
"/. c #F6DD75",
"(. c #EED36A",
"). c #FFE364",
"_. c #FFE36B",
"`. c #FFE96D",
"'. c #FFE967",
"]. c #FBE175",
"[. c #FFEB74",
"{. c #FBE47C",
"}. c #FFEB7A",
"|. c #F7E07C",
" X c #FFF475",
".X c #FFF77B",
"XX c #D2C882",
"oX c #E6D785",
"OX c #FCE680",
"+X c #FDE985",
"@X c #FDEB8A",
"#X c #FEEA8A",
"$X c #FEED8E",
"%X c #FFEF8F",
"&X c #FDEC8B",
"*X c #F5E58B",
"=X c #FFF383",
"-X c #FFFA83",
";X c #FFF48B",
":X c #FFFF8C",
">X c #FEED90",
",X c #FEEF93",
"<X c #FEEE90",
"1X c #FEEE91",
"2X c #F1E490",
"3X c #FFF196",
"4X c #FFF195",
"5X c #FFFC93",
"6X c #FFF298",
"7X c #FFF399",
"8X c #FFF298",
"9X c #FFFD9B",
"0X c #FFFFA3",
/* pixels */
"                                                    7X,X$X@X+X{.{.{.].Q.Q.E.                                                    ",
"                                            OX@X<X9X0X7X4X$X+XOX{.].].]._._.).R.J.G.                                            ",
"                                        {.;X5X5X7X7X7X4X<X@X+XOX{.].^.Q.Q.E.E.W.W.).K.A.                                        ",
"                                  Q.Q.-X=X}.+X&X$X3X7X<X#X@X+XOX{.{.^.Q.E.!.!.J.G.G.G.K.L.Z.b.                                  ",
"                                R. X[.].{.OX+X@X$X3X7X<X<X@X+XOX{.{.^.^.Q.E.R.R.J.G.G.Z.Z.F.K.j.                                ",
"                            G.`._.E.Q.].{.OX+X@X$X3X7X<X$X@X+XOX{.].^.Q.Q.R.R.J.J.G.G.A.Z.Z.j.V.C.f.                            ",
"                          G.).J.E.Q.Q.].{.{.+X@X<X3X7X3X$X@X+XOX{.].^.Q.Q.E.E.J.G.G.G.A.Z.Z.Z.j.j.N.h.                          ",
"                      n.L.K.J.R.R.Q.Q./.{.{.OX@X$X3X7X<X$X@X+XOX{.{.^.Q.Q.W.R.R.G.G.A.A.Z.b.j.j.g.g.h.M.}                       ",
"                    b.P.F.A.J.J.E.E.Q./.{.{.+X@X<X3X7X,X$X@X+XOX{.].^.Q.Q.!.R.J.J.G.G.A.Z.j.b.j.g.g.f.f.M.]                     ",
"                  g.P.n.A.A.J.J.R.Q._.].{.OX+X@X<X3X7X,X$X@X+XOX{.].^.^.W.E.R.R.J.G.F.A.A.S.b.j.g.g.f.} @.=.]                   ",
"                f.C.b.n.A.A.J.J.R.Q.^.].{.{.+X$X>X,X7X<X$X@X+XOX{.].^.Q.Q.!.R.R.G.G.D.A.Z.n.j.j.j.f.f.} | [ *.'                 ",
"              } C.g.b.b.Z.A.J.J.E.E.Q.].{.{.+X#X>X7X7X<X$X@X+XOX{.{.^.Q.Q.E.R.J.J.G.D.A.Z.n.n.j.g.g.} y.[ [ ] &.(               ",
"              m.h.y.b.n.Z.A.J.J.R.Q.Q.].{.{.+X#X>X7X7X<X$X@X+XOX{.{.^.Q.Q.!.R.R.J.G.D.A.Z.Z.n.j.j.f.y.} } [ ] ] %.              ",
"            @.*.} #.b.b.Z.A.J.J.!.Q.Q.].{.OX+X#X>X,X7X,X$X@X+XOX{.].^.^.Q.!.R.R.J.G.D.A.Z.j.j.j.g.g.f.} | ] ] ` +._             ",
"          ] *.} y.b.b.b.Z.A.J.J.E.E.Q.^.{.{.+X#X<X3X7X,X$X&X+X}.{.].^.Q.Q.!.R.R.J.J.D.Z.Z.j.j.j.g.g.f.} } ] ] ' ( $.(           ",
"          *.} } @.g.b.n.A.A.J.J.E.E.^.].{.{.+X#X>X,X7X,X<X;X+X+X{.{.]._.W.!.!.J.J.D.D.A.Z.Z.n.j.g.g.f.} } [ ] ] ( ( X.          ",
"        ` +.} } f.g.b.n.Z.A.G.J.E.Q.Q.].{.{.+X&X$X,X7X,X$X;X+X+X{.}.]._.Q.!.R.J.J.G.A.A.Z.j.j.j.g.g.y.} } ] ] ' ' ( _ Q         ",
"      ( %.] | } f.g.b.n.Z.A.J.R.E.E.Q./.{.{.+X&X,X3X7X9Xx.b b J -XG b b s._.!.R.J.G.A.A.Z.Z.Z.j.g.g.y.} } ] ' ' ( ( ^ X.Q       ",
"      ` +.] } } @.g.b.n.Z.A.J.J.E.E._.].{.{.+X&X$X3X7X9Xq.@ @ M :Xn & % u._.R.R.J.G.D.A.Z.Z.b.j.g.g.f.} } } ] ' ' ( ( ( Q       ",
"      $.' ] ] } y.h.g.n.Z.A.J.J.E.E.^.].{.{.+X@X,X7X7X9Xw.X X M :Xz X X u.`.R.J.J.D.A.A.A.j.b.j.g.g.f.} | ] ] ' ` ( ( Q  .      ",
"    ( o.` ] ] } y.g.b.n.Z.D.D.R.E.E.^.].].OX+X&X,X3X3X9X0.. . x :Xj . . 4.[.R.R.J.G.D.A.Z.b.j.j.g.g.f.} | } ] ` ( ( ( ( / W     ",
"    ..) ' ] | } g.g.b.b.Z.D.G.R.R.E.^.^.{.{.+X&X$X3X7X9X0.. . x :X4 . . 4.`.R.R.J.G.D.A.Z.Z.b.j.g.g.f.} } ] ] ' ' ( ! Q ^ /     ",
"  ! X.( ' ] } } @.g.b.n.Z.D.D.R.E.E.^.].{.OX+X@X,X3X7X9X0.. . c :X4 . . r.`.!.R.J.G.D.A.Z.b.b.j.g.g.y.} } ] ] ' ' ( ! ! Q  .R   ",
"  ! _ ( ' ' } } v.m.N.A.Z.A.D.R.R.Q.Q./.}.=X;X5X,X,X7X0Xk.. . x 5Xh . . p. X_.W.J.W.K.J.Z.Z.b.j.g.g.y.} #.#.+.] ( ( ( Q Q / E   ",
"  Q ) ( ' ] ] @.~ U U y.H.A.D.R.E.Q.Q.}.{.z.z.T.*X7X0X3X:.. . z /.5 . . ,.U.p.n.G.t.t.t.Z.n.b.j.g.g.f.} I P P ! ' ( ! ! Q ! R   ",
"  / ( ( ` ] @.h.3 . . 2 Z.K.D.R.E.E.[.}.j . . O *X0X:.o . O O . . O O O . . . H d.. . + Z.F.j.j.g.g.g.} o . X T +.( ( ! Q ! W   ",
"Q / ( ( ' ] @.h.5 . O . j L.K.J.!._..XC . . . - 5XY.. . . . . . . . . . . . . H d.X . < Z.F.b.j.g.g.h.} < . X T +.( ! ! Q Q W R ",
"Q / ( ( ' ] | #.4 X o o . V ).R.!. X-.. O + X , 9X;.. o ; w 2 2 2 2 2 2 2 2 - -.d.# . 3 Z.F.b.j.g.g.h.} 2 X # P o.( ( ! Q E W R ",
"Q ^ Q ( ' ] @.h.j # - + o X -.).`.i.@ o o - O w 7X:.X . G 7X*X{.{././.^.!.!.R.W.p.$ X u A.N.n.b.j.g.h.y.3 X : P o.( ( ! Q E E R ",
"E ^ ( ( ' ] | h.l # , t $ $ & a.(.9 o $ y 2 o e 9X7.X X F 9X;X+X}.}.].]._.Q.W.).p.: # a K.P.H.N.V.m.M.v.u # > I o.( ! ! Q Q E R ",
"E ^ ( ( ' ] | h.n $ > 2.v $ $ i d * $ t q.w # i 9X6.o # F 5X+X}.{.].^.Q.E.E.!.W.a.> - e V V B B N N N N y * 9 I o.( ( ! Q E R R ",
"W Q ( ( ' ] | h.m % 7 r.Z.g : > - - 8 z.{.r $ f 9X6.$ $ J 5X+X+X{.{.^.Q.Q.E.W.W.s.0 > , % & $ % % % % % , , q ~ ] ( ! Q Q E R R ",
"Q Q ( ( ` ] @.h.M 7 9 3.I.i.q > , : 8..X~.r : d 9X9.: = 5.5X+XOX{.].^.E.Q.E.!.W.s.r 9 w 8 8 9 8 8 8 8 8 w , g ~ ..( ( ! Q Q R R ",
"E ! ( ( ' ] [ h.A : 0 3.H.).2.: % ;. X}.~.g : k 9X9.: = 5.5X+XOX{.].^.^.E.E.W.W.l.r > k 2.2.>.>.>.>.>.>.d > g ~ ] ( ( ! Q Q R R ",
"Q ! ^ ( ` ] | h.m : 8 1.H.G.).D A [._.}.~.r $ f 9X6.$ $ 5.9X;X-X=X}.}.}._._.).).s.0 $ k H.H.N.N.V.m.=.m.k : r U ..( ! ! Q E E R ",
"W ^ ( ( ` ] | #.n $ : <.H.A.J.R.R._.Q.}.T.9 # a 9X6.# $ G oXY.T.U.z.U.l.l.l.l.D.s.9 $ f A.F.b.j.g.f.#.y.a & 9 Y ..( ! ! Q E R R ",
"Q / ( ( ' ] @.h.n @ % <.H.D.D.E.Q.E.Q.}.T., X e 9X6.X : > : : = : : : > = = @ -.S.> @ a A.Z.j.j.g.g.h.f.u # 8 I o.( ( ! Q Q W R ",
"Q / ( ( ' ] @.#.p X X ,.P.A.J.R.!.Q.Q.}.U.o . , ,X2X> . X + + o . o $ o X X . K S.# . w A.A.n.j.g.f.f.} w X # P o.( ( Q Q Q W R ",
"  / ^ ( ' ' @.#.c , , <.H.A.J.R.E.E._.}.U.w , a *X0XXXv 2 o o ; u ; o + w 3 > -.d.w , j Z.Z.n.j.j.g.f.y.p , 2 P ] ( ( Q Q W W   ",
"  ! ) ( ' ] [ @.f.g.j.b.Z.A.G.J.!.E.^.].{.OX+X#X<X7X9X0Xe.. . B :Xn . X a.`.E.R.G.G.G.A.Z.b.j.j.g.g.f.} [ [ ] ' ) ( ( Q Q ! R   ",
"  ! ..( ( ] | } h.b.n.n.V.A.G.J.!.E.^.].{.+X=X;X<X,X7X9Xe.. . M 5Xz . . a.[.).R.J.K.J.G.Z.n.n.j.g.g.f.} @.@.[ ] ( ( ! ! Q / R   ",
"  ! X.( ' ] | } f.g.b.n.Z.A.J.R.!.Q.Q.].{.{.+X@X<X3X7X0Xw.. . x :Xj . . u._.R.R.J.G.F.A.Z.n.b.j.g.g.f.} | [ ' ' ' ( ( ! Q  .Q   ",
"    ..) ' ] [ } f.g.b.n.Z.A.J.J.R.Q.Q.].{.OX+X#X<X3X7X9X0.. . c :X4 . . 4.`.R.R.J.G.A.A.Z.n.b.j.g.g.y.| } [ ] ` ) ( ! ! ! /     ",
"    ( ..' ] } } } #.b.n.Z.D.J.J.!.E.Q.].{.OX+X#X<X3X7X0X0.. . x :X4 . . u.`.R.R.J.G.A.A.Z.n.b.j.g.g.y.} [ [ ] ' ' ( ( ! / Q     ",
"      $.' [ [ | f.g.b.n.Z.A.J.R.E.E./.].{.OX+X@X>X3X7X9Xq.. . M :Xz X X u.`.!.J.J.G.D.A.Z.b.b.j.g.y.y.} [ [ ] ' ( ( ! !  .      ",
"      ( ] ' | } f.g.b.n.Z.A.G.J.R.Q.Q.^.].{.+X@X>X3X7X9Xe.= 6 S -Xm 6 8 i._.R.J.R.D.D.A.Z.Z.j.j.g.g.f.} [ [ ] ' ' ( ( / !       ",
"      ( %.] } | f.g.b.n.Z.A.G.J.E.Q.Q.].{.OX+X@X<X3X,X9XY.Z Z 7.-XJ Z Z l.).R.R.J.D.D.A.Z.Z.j.j.g.g.f.} } [ ] ' ( ( ( X.Q       ",
"        ' +.} } f.g.g.n.A.A.J.J.E.E.Q.^.{.{.+X@X<X,X7X,X,X;X+X+X{.{.]._.Q.W.R.R.J.D.D.D.Z.b.b.j.g.f.f.y.| [ ] ' ' ( _ !         ",
"          *.| } f.g.g.n.A.A.J.J.R.Q.Q.].{.{.+X@X<X3X7X<X<X;X@X+X{.{.].Q.Q.!.R.R.J.G.D.A.Z.Z.b.j.j.f.f.} | [ ] ' ` ( X.          ",
"          ] *.} f.g.b.n.n.G.J.J.!.E.Q.].{.OX+X@X<X3X7X,X<X#X+X{.{.].].^.Q.!.R.J.J.G.A.A.Z.Z.b.j.g.g.f.} | ] ] ' ( +.^           ",
"            @.h.f.g.b.n.A.A.J.J.!.Q.Q.].{.OX+X@X>X7X7X<X<X#X+XOX{.].^.Q.W.!.R.R.J.G.A.A.Z.j.b.j.g.g.f.y.| [ ] ` +._             ",
"              M.g.g.b.n.n.A.J.J.!.Q.Q.].].{.+X@X>X,X7X,X#X@X+XOX{.].^.Q.Q.!.!.R.J.D.A.A.Z.Z.j.j.g.f.f.} [ [ ] ] %.              ",
"              } B.v.b.n.Z.A.J.J.R.Q.Q.].{.OX+X@X>X,X7X,X#X#X+XOX{.].^.Q.Q.!.!.G.J.G.D.A.Z.b.b.j.b.f.y.} } ] [ &.(               ",
"                } C.b.n.Z.A.J.R.!.E.Q.].{.{.+X@X<X7X7X,X<X#X+XOX{.{.].Q.Q.!.R.R.J.G.D.A.Z.Z.b.j.b.f.@.y.} } *.'                 ",
"                  g.P.n.A.A.J.J.R.Q.^.^.{.{.+X@X<X7X7X,X<X@X+XOX{.].].Q.!.!.!.J.J.G.D.A.Z.b.b.j.g.g.y.@.} =.]                   ",
"                    b.P.F.A.J.J.!.Q.Q.^.{.{.+X@X>X,X7X<X$X@X+XOX{.{.^.Q.Q.!.!.R.J.D.A.A.Z.Z.b.j.g.f.@.f.M.[                     ",
"                      n.L.L.G.J.E.Q.Q.].{.{.+X@X$X3X7X,X$X@X+XOX{.{.^.^.Q.!.R.J.R.D.D.Z.Z.n.b.j.g.g.v.M.}                       ",
"                          J.).J.R.E.Q.].{.{.+X@X<X3X7X,X$X@X+XOX{.].^.Q.Q.!.R.R.R.D.D.A.Z.n.b.j.j.N.h.                          ",
"                            J.`._.Q.Q.].{.{.+X@X<X3X7X,X$X@X+XOX{.{.^.Q.Q.E.R.R.J.D.A.A.Z.b.b.N.C.g.                            ",
"                                R. X[.].{.{.+X$X<X3X7X<X$X@X+XOX{.].^.Q.Q.E.R.J.R.D.F.A.Z.G.H.j.                                ",
"                                  Q.Q.-X.X+X+X@X$X3X3X4X$X+X+X{.{.].].Q.W.E.R.R.J.G.J.K.L.b.b.                                  ",
"                                        {.;X5X5X3X7X7X<X$X&X+X+X{.].].Q.Q.E.R.W.W.).L.A.                                        ",
"                                            +X@X>X9X0X9X4X&X+X+X{.{.].]._._._.J.J.G.                                            ",
"                                                    7X<X$X@X+X{.{.].].Q.Q.E.                                                    "
};
