/* XPM */
static char *d7c13eca83e84673b4c5085b2e480c92TOGbyOybWf83n4Ed[] = {
/* columns rows colors chars-per-pixel */
"16 16 150 2 ",
"   c None",
".  c #1B1911",
"X  c #1B1A12",
"o  c #1F1E1A",
"O  c #292615",
"+  c #23221C",
"@  c #2E2A18",
"#  c #3B3117",
"$  c #2B2922",
"%  c #3E3623",
"&  c #35332A",
"*  c #3B3829",
"=  c #403C25",
"-  c #413C29",
";  c #413C2B",
":  c #463F2B",
">  c #5F4C1D",
",  c #444028",
"<  c #574D29",
"1  c #4A4432",
"2  c #4F4A30",
"3  c #4E4C3A",
"4  c #4B4A3E",
"5  c #5C5335",
"6  c #705C27",
"7  c #635933",
"8  c #6F602F",
"9  c #72612F",
"0  c #766534",
"q  c #786736",
"w  c #716A48",
"e  c #81723B",
"r  c #857139",
"t  c #87743C",
"y  c #867A49",
"u  c #897E4D",
"i  c #CC981F",
"p  c #CF9A1E",
"a  c #CF9A1F",
"s  c #D09B1E",
"d  c #D19B1E",
"f  c #D1A127",
"g  c #D7A427",
"h  c #D8A426",
"j  c #D8A427",
"k  c #D2A42B",
"l  c #D7A52A",
"z  c #D8A62B",
"x  c #D9A62B",
"c  c #DBA82B",
"v  c #DFAB2B",
"b  c #CCA234",
"n  c #D3A734",
"m  c #D6AA36",
"M  c #D9AC35",
"N  c #D9AC36",
"B  c #DCAF36",
"V  c #E3B336",
"C  c #E2B237",
"Z  c #E2B337",
"A  c #E3B437",
"S  c #E4B437",
"D  c #E7B637",
"F  c #E8B737",
"G  c #F8C43C",
"H  c #8E8451",
"J  c #928958",
"K  c #928A58",
"L  c #958C5B",
"P  c #AA9349",
"I  c #B3A15B",
"U  c #9C9462",
"Y  c #D0B451",
"T  c #D4B956",
"R  c #D8BD58",
"E  c #E1B741",
"W  c #E2B842",
"Q  c #E3B942",
"!  c #E6BC43",
"~  c #E7BD43",
"^  c #E5BE47",
"/  c #C7B971",
"(  c #CDBE71",
")  c #EDC349",
"_  c #EFC549",
"`  c #E8C24D",
"'  c #E8C24E",
"]  c #E9C24E",
"[  c #E9C34E",
"{  c #EAC34E",
"}  c #F1C64A",
"|  c #F2C94E",
" . c #F2CA4F",
".. c #FFD04A",
"X. c #FFD64F",
"o. c #EFC850",
"O. c #E1C65F",
"+. c #E5C95F",
"@. c #E6C95F",
"#. c #EFCC59",
"$. c #EFCD59",
"%. c #F1C950",
"&. c #F0CC58",
"*. c #F0CD59",
"=. c #F1CE59",
"-. c #F9D45B",
";. c #F9D55C",
":. c #FBD75D",
">. c #FFD95D",
",. c #FED95E",
"<. c #EBCD62",
"1. c #F3D463",
"2. c #F6D764",
"3. c #F7D864",
"4. c #F9D965",
"5. c #FBDB66",
"6. c #F9DC6C",
"7. c #FADD6C",
"8. c #FFE061",
"9. c #FFE162",
"0. c #FFE863",
"q. c #FFE26F",
"w. c #FFE46E",
"e. c #FFE46F",
"r. c #FBE174",
"t. c #FDE375",
"y. c #FFEE73",
"u. c #FFE679",
"i. c #FFED7A",
"p. c #FFED7B",
"a. c #FFF07C",
"s. c #FCE683",
"d. c #FCE783",
"f. c #FDE883",
"g. c #FFED86",
"h. c #FFEF87",
"j. c #FDEB89",
"k. c #FEEB8A",
"l. c #FFEC8A",
"z. c #FFF68B",
"x. c #FFF78B",
"c. c #FFFA8D",
"v. c #FFF690",
"b. c #FFF195",
"n. c #FFF197",
"m. c #FFF397",
"M. c #FFF398",
"N. c #FFF69A",
"B. c #FFFD9D",
"V. c #FFFF9E",
/* pixels */
"          d.n.l.r.2.&.          ",
"      &.e.z.M.l.r.5.,.%.W       ",
"    ^ 0.q.f.n.l.t.3.$.o...M     ",
"  B X.&.7.d.n.v.i.3.$.' W G k   ",
"  A _ &.7.h.M.K y @.,.[ W S c   ",
"f D } -.e.c.B.= O T 5.{ W Z v i ",
"j M # Y O.2 K X . < 6 %.^ > l i ",
"j m $ * ; & 3 ( a.2.- q 0 % c d ",
"h b 5 P I w 4 / u.<.1 t r , c a ",
"g n 9 ,.y.H U + o 7 e  .~ 6 l a ",
"f F _ $.7.x.B., @ R 8.[ W A v i ",
"  V ) $.7.h.n.L u @.-.` W A c   ",
"  B X.&.7.d.n.v.i.5.$.' W G k   ",
"    ^ 0.q.f.n.l.t.3.$.o...M     ",
"      &.e.z.M.j.t.5.,.%.W       ",
"          s.n.j.t.1.&.          "
};
